<svg xmlns="http://www.w3.org/2000/svg" viewBox="0 0 120 120" width="120" height="120"><path d="M14 36V16h20M86 16h20v20M106 84v20H86M34 104H14V84" fill="none" stroke="#E9ECEF" stroke-width="7" stroke-linecap="round" stroke-linejoin="round"/><circle cx="92" cy="30" r="5" fill="#D52B1E"/><g transform="translate(-2 1)"><path d="M22 74V62q0-6 6-7l12-2 10-11q3-3 8-3h18q5 0 8 4l8 10 6 2q4 1 4 6v13z" fill="#1356A8"/><path d="M53 53l6-9h9v9zM72 53v-9h6q2 0 3 2l5 7z" fill="#fff"/><circle cx="38" cy="74" r="9" fill="#E9ECEF" stroke="#fff" stroke-width="3"/><circle cx="86" cy="74" r="9" fill="#E9ECEF" stroke="#fff" stroke-width="3"/></g></svg>
