<svg xmlns="http://www.w3.org/2000/svg" viewBox="0 0 120 120" width="120" height="120"><path d="M6 93h58V82h50" fill="none" stroke="#1C2430" stroke-width="5" stroke-linejoin="round" stroke-linecap="round"/><g transform="rotate(-11.8 38 83) translate(0 8)"><path d="M22 74V62q0-6 6-7l12-2 10-11q3-3 8-3h18q5 0 8 4l8 10 6 2q4 1 4 6v13z" fill="#D52B1E"/><path d="M53 53l6-9h9v9zM72 53v-9h6q2 0 3 2l5 7z" fill="#fff"/><circle cx="38" cy="74" r="9" fill="#1C2430" stroke="#fff" stroke-width="3"/><circle cx="86" cy="74" r="9" fill="#1C2430" stroke="#fff" stroke-width="3"/></g></svg>
